HIERARCHY
ROOT Hips
{
	OFFSET 0.000000 0.000000 0.000000
	CHANNELS 6 Xposition Yposition Zposition Xrotation Yrotation Zrotation
	JOINT LeftUpLeg_virtual
	{
		OFFSET 0.000000 0.000000 0.000000
		CHANNELS 3 Xrotation Yrotation Zrotation
		JOINT LeftUpLeg
		{
			OFFSET 11.394100 -6.187798 -0.413800
			CHANNELS 3 Xrotation Yrotation Zrotation
			JOINT LeftLeg
			{
				OFFSET 0.430247 -32.302673 3.732800
				CHANNELS 3 Xrotation Yrotation Zrotation
				JOINT LeftFoot
				{
					OFFSET -0.430247 -48.264931 -6.423300
					CHANNELS 3 Xrotation Yrotation Zrotation
					JOINT LeftToeBase
					{
						OFFSET 4.230900 -16.068199 23.438400
						CHANNELS 3 Xrotation Yrotation Zrotation
						JOINT LeftToe_End
						{
							OFFSET 4.510700 0.695400 19.974600
							CHANNELS 3 Xrotation Yrotation Zrotation
							End Site
							{
								OFFSET 0 0 0
							}
						}
					}
				}
			}
		}
	}
	JOINT RightUpLeg_virtual
	{
		OFFSET 0.000000 0.000000 0.000000
		CHANNELS 3 Xrotation Yrotation Zrotation
		JOINT RightUpLeg
		{
			OFFSET -11.333700 -6.187798 -0.413800
			CHANNELS 3 Xrotation Yrotation Zrotation
			JOINT RightLeg
			{
				OFFSET -0.430392 -32.302628 3.733000
				CHANNELS 3 Xrotation Yrotation Zrotation
				JOINT RightFoot
				{
					OFFSET 0.430392 -48.264973 -6.423500
					CHANNELS 3 Xrotation Yrotation Zrotation
					JOINT RightToeBase
					{
						OFFSET -4.230900 -16.068199 23.438400
						CHANNELS 3 Xrotation Yrotation Zrotation
						JOINT RightToe_End
						{
							OFFSET -4.510700 0.695400 19.974600
							CHANNELS 3 Xrotation Yrotation Zrotation
							End Site
							{
								OFFSET 0 0 0
							}
						}
					}
				}
			}
		}
	}
	JOINT Spine_virtual
	{
		OFFSET 0.000000 0.000000 0.000000
		CHANNELS 3 Xrotation Yrotation Zrotation
		JOINT Spine
		{
			OFFSET -0.002400 12.777504 0.315300
			CHANNELS 3 Xrotation Yrotation Zrotation
			JOINT Spine1
			{
				OFFSET -0.002067 5.816869 0.032633
				CHANNELS 3 Xrotation Yrotation Zrotation
				JOINT Spine1_split
				{
					OFFSET -0.002067 5.816869 0.032633
					CHANNELS 3 Xrotation Yrotation Zrotation
					JOINT Spine2
					{
						OFFSET -0.002067 5.816869 0.032633
						CHANNELS 3 Xrotation Yrotation Zrotation
						JOINT Neck_virtual
						{
							OFFSET 0.000000 0.000000 0.000000
							CHANNELS 3 Xrotation Yrotation Zrotation
							JOINT Neck
							{
								OFFSET -0.003700 21.199493 -0.826900
								CHANNELS 3 Xrotation Yrotation Zrotation
								JOINT Head
								{
									OFFSET 0.000000 20.442200 4.834800
									CHANNELS 3 Xrotation Yrotation Zrotation
									JOINT HeadTop_End
									{
										OFFSET 0.000000 34.668396 4.968400
										CHANNELS 3 Xrotation Yrotation Zrotation
										End Site
										{
											OFFSET 0 0 0
										}
									}
								}
							}
						}
						JOINT LeftShoulder_virtual
						{
							OFFSET 0.000000 0.000000 0.000000
							CHANNELS 3 Xrotation Yrotation Zrotation
							JOINT LeftShoulder
							{
								OFFSET 3.288150 8.794197 -1.372250
								CHANNELS 3 Xrotation Yrotation Zrotation
								JOINT LeftShoulder_split
								{
									OFFSET 3.288150 8.794197 -1.372250
									CHANNELS 3 Xrotation Yrotation Zrotation
									JOINT LeftArm
									{
										OFFSET 11.953299 -2.279007 -0.146200
										CHANNELS 3 Xrotation Yrotation Zrotation
										JOINT LeftForeArm
										{
											OFFSET 18.448900 0.000000 0.000000
											CHANNELS 3 Xrotation Yrotation Zrotation
											JOINT LeftHand
											{
												OFFSET 29.527798 0.000000 0.000000
												CHANNELS 3 Xrotation Yrotation Zrotation
												End Site
												{
													OFFSET 0 0 0
												}
											}
										}
									}
								}
							}
						}
						JOINT RightShoulder_virtual
						{
							OFFSET 0.000000 0.000000 0.000000
							CHANNELS 3 Xrotation Yrotation Zrotation
							JOINT RightShoulder
							{
								OFFSET -3.249400 8.794197 -1.372250
								CHANNELS 3 Xrotation Yrotation Zrotation
								JOINT RightShoulder_split
								{
									OFFSET -3.249400 8.794197 -1.372250
									CHANNELS 3 Xrotation Yrotation Zrotation
									JOINT RightArm
									{
										OFFSET -11.953299 -2.279007 -0.146200
										CHANNELS 3 Xrotation Yrotation Zrotation
										JOINT RightForeArm
										{
											OFFSET -18.448900 0.000000 0.000000
											CHANNELS 3 Xrotation Yrotation Zrotation
											JOINT RightHand
											{
												OFFSET -29.527802 0.000000 0.000000
												CHANNELS 3 Xrotation Yrotation Zrotation
												End Site
												{
													OFFSET 0 0 0
												}
											}
										}
									}
								}
							}
						}
					}
				}
			}
		}
	}
}
MOTION
Frames: 6
Frame Time: 0.03333333
0.378041 96.075043 -0.143047 0.000000 0.000000 0.000000 -0.952470 -27.206220 0.264345 -29.063719 22.799346 15.033506 29.876631 7.169977 11.976602 -3.675005 1.717489 -14.675151 1.023941 -0.050543 -2.812226 0.000000 0.000000 0.000000 -1.496844 -26.283271 0.464051 -23.933954 -16.804268 -9.897942 31.418402 -2.442427 -8.952431 -10.588023 -2.524599 13.140919 -1.845075 0.467768 0.066956 0.000000 0.000000 0.000000 -0.110491 -28.024524 0.518711 4.255642 -1.628831 1.164257 0.498149 -0.637511 0.142890 1.041746 -0.428978 0.313529 0.000000 0.000000 0.000000 0.636389 -0.755620 0.225102 -2.329118 1.452724 3.344829 17.471948 23.926716 -12.622443 0.000000 0.000000 0.000000 1.209007 -0.729285 0.178723 -0.664484 2.626246 4.322307 -1.573944 0.011133 -0.257438 -53.253564 -2.210499 -49.323210 -13.065308 -87.611806 -12.688605 0.000000 0.000000 0.000000 2.054316 -0.389791 0.065957 -1.159403 -11.282405 10.758678 0.849820 1.924469 -0.019038 -63.561064 64.656319 79.063654 -19.957516 87.197747 19.921256 0.000000 0.000000 0.000000 
0.373405 96.068390 -0.136959 0.000000 0.000000 0.000000 -0.926660 -27.193370 0.295275 -29.080429 22.861041 15.048399 29.891971 7.156970 11.965387 -3.684567 1.670054 -14.682859 1.020365 -0.046289 -2.810227 0.000000 0.000000 0.000000 -1.483731 -26.249182 0.489393 -24.024845 -17.017141 -9.923907 31.504729 -2.309082 -9.066434 -10.596532 -2.533765 13.164773 -1.851790 0.464654 0.060829 0.000000 0.000000 0.000000 -0.088946 -28.044132 0.544924 4.237861 -1.658287 1.178806 0.479198 -0.645318 0.141760 1.042169 -0.432949 0.305286 0.000000 0.000000 0.000000 0.625204 -0.763929 0.224092 -2.307907 1.468088 3.344593 17.486963 23.945981 -12.629646 0.000000 0.000000 0.000000 1.192167 -0.736170 0.179566 -0.666081 2.649602 4.235627 -1.584498 -0.004842 -0.263022 -53.230495 -2.279108 -49.250455 -12.554272 -87.505658 -12.178228 0.000000 0.000000 0.000000 2.038252 -0.401620 0.063036 -1.157271 -11.288804 10.742367 0.865110 1.923211 -0.019193 -63.600987 64.700845 79.033540 -19.852281 87.196831 19.827522 0.000000 0.000000 0.000000 
0.372702 96.060257 -0.128948 0.000000 0.000000 0.000000 -0.898218 -27.177676 0.326939 -29.108122 22.944074 15.085333 29.907561 7.124942 11.951326 -3.708600 1.606988 -14.686857 1.006908 -0.045155 -2.801899 0.000000 0.000000 0.000000 -1.464989 -26.206821 0.517381 -24.124266 -17.253568 -9.952075 31.593422 -2.168453 -9.188648 -10.616561 -2.547107 13.180090 -1.833341 0.462979 0.057383 0.000000 0.000000 0.000000 -0.061192 -28.065271 0.576408 4.221730 -1.692356 1.191834 0.457703 -0.655161 0.141290 1.040670 -0.434861 0.296841 0.000000 0.000000 0.000000 0.617193 -0.774777 0.222968 -2.292540 1.480312 3.350941 17.497941 23.963251 -12.633591 0.000000 0.000000 0.000000 1.175199 -0.746085 0.180186 -0.663775 2.660296 4.149384 -1.593526 -0.013890 -0.262139 -53.229269 -2.343832 -49.164135 -12.021990 -87.412679 -11.648694 0.000000 0.000000 0.000000 2.023028 -0.415216 0.060859 -1.154043 -11.277982 10.713297 0.867868 1.937525 -0.020359 -63.618158 64.716889 78.994758 -19.781777 87.197952 19.768343 0.000000 0.000000 0.000000 
0.374929 96.053299 -0.118279 0.000000 0.000000 0.000000 -0.869547 -27.162207 0.359785 -29.129982 23.038580 15.131092 29.909743 7.085465 11.934080 -3.744019 1.544372 -14.686227 0.993615 -0.046866 -2.790253 0.000000 0.000000 0.000000 -1.441602 -26.164255 0.548865 -24.225597 -17.484512 -9.983933 31.684121 -2.030277 -9.309453 -10.638291 -2.564472 13.191703 -1.815199 0.462592 0.051610 0.000000 0.000000 0.000000 -0.032514 -28.086238 0.612912 4.203914 -1.730625 1.205091 0.435311 -0.666933 0.142402 1.036472 -0.431595 0.287221 0.000000 0.000000 0.000000 0.612688 -0.788195 0.223505 -2.279700 1.490130 3.357015 17.510414 23.980062 -12.641645 0.000000 0.000000 0.000000 1.159968 -0.758972 0.182130 -0.658021 2.660362 4.065579 -1.600784 -0.021957 -0.253116 -53.263854 -2.400532 -49.067953 -11.405582 -87.321387 -11.035504 0.000000 0.000000 0.000000 2.010597 -0.430024 0.060660 -1.150273 -11.245764 10.659818 0.866179 1.964534 -0.026846 -63.643115 64.709663 78.978481 -19.663401 87.186586 19.656987 0.000000 0.000000 0.000000 
0.375591 96.050766 -0.104244 0.000000 0.000000 0.000000 -0.848735 -27.156958 0.391720 -29.125433 23.129872 15.169560 29.881050 7.055327 11.917987 -3.783837 1.500773 -14.680856 0.987566 -0.049914 -2.777934 0.000000 0.000000 0.000000 -1.419272 -26.131558 0.583070 -24.325879 -17.680595 -10.018180 31.772565 -1.906011 -9.416491 -10.654341 -2.585101 13.207298 -1.817596 0.462025 0.042862 0.000000 0.000000 0.000000 -0.009550 -28.105791 0.651573 4.183275 -1.772431 1.221173 0.413253 -0.680268 0.146729 1.028732 -0.425175 0.278452 0.000000 0.000000 0.000000 0.611702 -0.804267 0.226988 -2.262942 1.501423 3.354747 17.531752 23.997163 -12.661951 0.000000 0.000000 0.000000 1.147985 -0.774694 0.187253 -0.650373 2.653515 3.986517 -1.602843 -0.018520 -0.232396 -53.334673 -2.444727 -48.967009 -10.740801 -87.222861 -10.369980 0.000000 0.000000 0.000000 2.002406 -0.446091 0.063663 -1.147068 -11.189581 10.565976 0.862213 1.992383 -0.028239 -63.713787 64.689951 79.024121 -19.412431 87.151943 19.408025 0.000000 0.000000 0.000000 
0.372811 96.054840 -0.090767 0.000000 0.000000 0.000000 -0.834986 -27.161419 0.422163 -29.081696 23.208170 15.189484 29.816183 7.045789 11.904884 -3.821534 1.487273 -14.670008 0.988606 -0.053212 -2.767380 0.000000 0.000000 0.000000 -1.400566 -26.119948 0.617838 -24.416982 -17.817739 -10.055031 31.851962 -1.801772 -9.501080 -10.666601 -2.605658 13.218731 -1.829862 0.461242 0.032472 0.000000 0.000000 0.000000 0.006512 -28.125208 0.691311 4.157422 -1.815879 1.242548 0.393673 -0.695655 0.155400 1.024240 -0.415206 0.275307 0.000000 0.000000 0.000000 0.612828 -0.823469 0.234890 -2.238574 1.516377 3.337906 17.563621 24.018350 -12.699858 0.000000 0.000000 0.000000 1.139559 -0.793528 0.197163 -0.641953 2.644629 3.910035 -1.604538 -0.005395 -0.200096 -53.440158 -2.477701 -48.871202 -10.012013 -87.103961 -9.635810 0.000000 0.000000 0.000000 1.998343 -0.464040 0.070609 -1.144422 -11.111283 10.426489 0.859324 2.016758 -0.024467 -63.843964 64.663491 79.147570 -19.014555 87.086442 19.006098 0.000000 0.000000 0.000000 
